 <svg  version="1.0" xmlns="http://www.w3.org/2000/svg"  width="900.000000pt" height="345.000000pt" viewBox="0 0 900.000000 345.000000"  preserveAspectRatio="xMidYMid meet">  <g transform="translate(0.000000,345.000000) scale(0.100000,-0.100000)" fill="#000000" stroke="none"> <path d="M4106 3205 c-3 -9 -6 -47 -6 -85 0 -71 14 -98 45 -86 13 5 15 22 13 93 -3 81 -5 88 -24 91 -13 2 -24 -4 -28 -13z"/> <path d="M3687 3043 c-4 -3 -7 -12 -7 -19 0 -20 111 -124 132 -124 34 0 19 38 -37 95 -52 52 -73 64 -88 48z"/> <path d="M4487 2992 c-60 -60 -72 -92 -36 -92 30 0 129 97 129 126 0 40 -31 28 -93 -34z"/> <path d="M4035 2937 c-60 -18 -147 -70 -183 -111 -18 -20 -44 -60 -59 -89 -25 -47 -27 -62 -27 -162 -1 -100 2 -114 26 -161 15 -28 47 -75 72 -104 65 -76 84 -118 96 -212 5 -45 10 -86 10 -89 0 -4 12 -21 26 -38 26 -31 26 -31 128 -31 145 0 168 21 179 163 7 81 27 133 68 177 77 83 114 147 128 224 23 123 -23 262 -112 342 -57 51 -98 72 -177 90 -67 16 -122 16 -175 1z m234 -98 c55 -31 130 -103 131 -125 0 -7 7 -25 15 -40 9 -18 15 -57 15 -100 0 -88 -20 -137 -90 -219 -77 -90 -107 -160 -119 -280 l-6 -60 -73 -3 c-88 -3 -102 5 -102 61 0 53 -28 153 -55 197 -12 19 -42 59 -67 88 -93 108 -113 234 -57 349 32 66 67 101 141 140 35 19 58 23 127 23 76 0 90 -3 140 -31z"/> <path d="M4117 2833 c-13 -12 -7 -41 9 -47 9 -3 27 -6 40 -6 13 0 47 -12 74 -26 48 -25 70 -25 70 0 0 43 -163 110 -193 79z"/> <path d="M4336 2673 c-3 -10 -2 -40 2 -68 5 -37 12 -51 26 -53 39 -8 48 53 16 106 -22 36 -36 41 -44 15z"/> <path d="M3517 2624 c-13 -13 -7 -42 9 -48 24 -9 147 -7 162 3 8 5 12 17 10 27 -3 17 -14 19 -89 22 -47 1 -88 0 -92 -4z"/> <path d="M4572 2618 c-7 -7 -8 -17 -1 -30 8 -15 22 -18 88 -18 82 0 107 12 95 44 -5 13 -22 16 -88 16 -49 0 -87 -5 -94 -12z"/> <path d="M3800 2302 c-19 -7 -81 -70 -104 -105 -18 -27 -15 -47 8 -47 20 0 126 109 126 130 0 22 -10 29 -30 22z"/> <path d="M4430 2282 c0 -26 115 -136 134 -129 28 11 18 36 -35 93 -54 56 -99 73 -99 36z"/> <path d="M673 1903 c-10 -4 -13 -159 -13 -731 0 -400 4 -733 8 -740 7 -9 47 -12 168 -10 l159 3 5 176 c5 171 6 177 30 202 14 15 30 27 36 27 10 0 125 -131 245 -280 20 -25 54 -64 75 -87 l39 -42 179 -2 c117 -2 181 1 183 8 4 10 -24 47 -115 152 -26 29 -51 61 -56 70 -5 9 -16 23 -25 32 -9 9 -34 37 -56 64 -22 26 -57 69 -79 94 -21 25 -45 55 -55 66 -9 11 -40 48 -68 82 -29 33 -53 66 -53 72 0 9 105 120 333 354 69 71 83 93 61 101 -9 3 -91 6 -183 6 -162 0 -169 -1 -192 -23 -41 -39 -202 -210 -237 -250 -61 -72 -62 -68 -62 312 0 300 -2 340 -16 345 -19 7 -293 7 -311 -1z"/> <path d="M3980 1885 c-6 -15 -10 -66 -10 -115 0 -49 4 -100 10 -115 l10 -26 157 3 158 3 0 135 0 135 -158 3 -157 3 -10 -26z"/> <path d="M6867 1903 c-4 -3 -7 -336 -7 -739 0 -658 2 -732 16 -738 23 -9 302 -7 308 2 9 15 17 839 10 1155 l-7 327 -157 0 c-86 0 -160 -3 -163 -7z"/> <path d="M7850 1524 c-87 -17 -200 -69 -272 -126 -49 -38 -124 -140 -154 -206 -13 -30 -31 -93 -39 -141 -14 -79 -14 -97 0 -172 20 -107 40 -159 86 -229 62 -91 147 -158 260 -203 107 -43 161 -50 299 -43 153 8 250 39 347 113 53 41 51 48 -44 139 -49 46 -91 84 -94 84 -4 0 -33 -12 -65 -27 -52 -23 -72 -27 -164 -27 -95 -1 -110 2 -163 27 -57 29 -102 75 -109 112 -3 20 4 20 369 25 204 3 374 8 378 11 3 4 9 38 12 76 13 156 -43 325 -140 425 -112 116 -210 159 -372 163 -60 2 -121 1 -135 -1z m185 -295 c64 -24 135 -86 135 -118 0 -21 0 -21 -212 -19 -144 2 -213 7 -215 14 -2 6 16 32 39 58 30 33 59 52 98 66 70 25 87 25 155 -1z"/> <path d="M1913 1488 c2 -18 14 -58 26 -88 12 -30 33 -86 46 -125 13 -38 40 -115 60 -170 20 -55 40 -111 45 -125 5 -14 18 -50 30 -80 11 -30 32 -86 45 -125 13 -38 40 -115 60 -170 20 -55 41 -114 46 -131 5 -18 15 -37 22 -43 21 -16 306 -16 322 1 7 7 24 47 38 88 22 65 86 244 133 375 8 22 24 67 35 100 21 61 34 83 44 73 6 -5 48 -122 110 -303 13 -38 41 -115 61 -170 20 -55 39 -110 41 -122 11 -49 31 -54 188 -55 80 0 150 3 155 8 9 9 46 106 95 249 13 39 47 135 75 215 29 80 55 156 60 170 5 14 18 50 30 80 12 30 25 69 30 85 4 17 20 59 34 94 14 36 26 72 26 80 0 9 7 25 15 35 8 11 15 35 15 53 l0 33 -162 -2 -162 -3 -7 -30 c-4 -16 -18 -61 -32 -100 -13 -38 -45 -137 -72 -220 -26 -82 -53 -166 -60 -185 -7 -19 -18 -55 -26 -80 -25 -82 -31 -73 -118 180 -12 36 -27 74 -32 85 -5 11 -14 34 -19 50 -5 17 -25 75 -45 130 -20 55 -41 115 -46 132 -13 42 -24 44 -184 41 l-129 -3 -19 -50 c-10 -27 -22 -63 -27 -80 -5 -16 -18 -55 -30 -85 -19 -49 -67 -183 -90 -250 -56 -162 -69 -195 -77 -197 -15 -5 -48 87 -119 327 -9 30 -22 71 -29 90 -7 19 -21 62 -30 95 -10 33 -26 80 -36 105 l-18 45 -161 3 -162 3 5 -33z"/> <path d="M3982 1503 c-9 -22 -6 -1072 3 -1081 11 -12 269 -14 298 -3 l27 11 0 533 c0 401 -3 536 -12 545 -8 8 -58 12 -160 12 -132 0 -149 -2 -156 -17z"/> <path d="M4524 1507 c-2 -7 -3 -74 -2 -148 l3 -134 220 -3 c121 -1 224 -7 229 -12 5 -5 -22 -55 -70 -127 -44 -65 -81 -123 -84 -128 -3 -6 -48 -76 -101 -155 -186 -281 -229 -349 -229 -364 0 -9 10 -18 23 -21 35 -9 964 -1 974 8 14 14 16 256 3 272 -10 12 -53 15 -235 15 -122 0 -225 3 -228 6 -3 4 -1 16 5 28 10 19 181 280 400 610 43 65 80 128 81 140 l2 21 -493 3 c-399 2 -494 0 -498 -11z"/> <path d="M5719 1489 l-30 -32 3 -116 3 -116 223 -3 c254 -3 247 0 188 -87 -73 -108 -351 -530 -355 -539 -2 -4 -22 -36 -45 -70 -52 -75 -61 -97 -44 -108 7 -4 229 -8 494 -8 370 0 484 3 497 13 15 11 17 29 15 147 l-3 135 -230 3 c-126 1 -234 7 -239 12 -5 5 5 30 26 62 19 29 116 175 214 323 98 149 183 277 189 286 55 90 66 110 60 119 -4 7 -163 10 -472 10 l-465 0 -29 -31z"/> </g> </svg> 